# ProBuilder 5.0.7
# https://unity3d.com/unity/features/worldbuilding/probuilder
# 21/6/2023 11:06:38 p. m.

mtllib ./MESH_WoodenPlanks.mtl
o MESH_WoodenPlanks

g Cube (2)
v -1.621953 0 1.626144
v -1.924636 0 1.626144
v -1.621953 4.284205 1.626144
v -1.924636 4.284205 1.626144
v -1.924636 0 1.397453
v -1.924636 4.284205 1.397453
v -1.621953 0 1.397453
v -1.621953 4.284205 1.397453
v -1.645067 0 -1.70542
v -1.899319 0 -1.70542
v -1.645067 3.089461 -1.70542
v -1.899319 3.089461 -1.70542
v -1.899319 0 -1.964776
v -1.899319 3.089461 -1.964776
v -1.645067 0 -1.964776
v -1.645067 3.089461 -1.964776
v 1.92084 2.98 1.993421
v -1.61 2.98 1.993421
v 1.92084 3.110922 1.993421
v -1.61 3.110922 1.993421
v -1.738404 2.98 -1.955522
v -1.738404 3.110922 -1.955522
v 1.92954 2.98 -1.955522
v 1.92954 3.110922 -1.955522
v 1.780275 0 -1.668238
v 1.539007 0 -1.668238
v 1.780275 3.08848 -1.668238
v 1.539007 3.08848 -1.668238
v 1.539007 0 -1.980389
v 1.539007 3.08848 -1.980389
v 1.780275 0 -1.980389
v 1.780275 3.08848 -1.980389
v 1.797 0 1.609749
v 1.507096 0 1.609749
v 1.797 4.277703 1.609749
v 1.507096 4.277703 1.609749
v 1.507096 0 1.361939
v 1.507096 4.277703 1.361939
v 1.797 0 1.361939
v 1.797 4.277703 1.361939

vt 0.3026836 0
vt 0 0
vt 0.3026836 4.284205
vt 0 4.284205
vt 0.2286913 0
vt 0.2286913 4.284205
vt -0.3026836 0
vt -0.3026836 4.284205
vt -0.2286913 0
vt -0.2286913 4.284205
vt -0.3026836 0.2286913
vt 0 0.2286913
vt 0.3026836 0.2286913
vt -0.2542522 0
vt 0 3.089461
vt -0.2542522 3.089461
vt 0.259356 0
vt 0.259356 3.089461
vt 0.2542522 0
vt 0.2542522 3.089461
vt -0.259356 0
vt -0.259356 3.089461
vt 0 0.259356
vt 0.2542522 0.259356
vt -0.2542522 0.259356
vt 3.53084 0
vt 3.53084 0.1309216
vt 0 0.1309216
vt -3.520168 -2.384186E-07
vt -3.520168 0.1309223
vt 0.1284043 0
vt -3.53954 0
vt 0.1284043 0.1309216
vt -3.53954 0.1309216
vt 3.526567 0
vt 0.008731484 0
vt 3.526567 0.1309216
vt 0.008731484 0.1309216
vt -3.53084 -1.192093E-07
vt -3.53954 -3.517825
vt 0.1284043 -3.517825
vt 3.53954 -3.517825
vt -0.1284043 -3.517825
vt -0.2412677 0
vt 0 3.08848
vt -0.2412677 3.08848
vt -0.3121514 0
vt -0.3121514 3.08848
vt 0.2412677 0
vt 0.2412677 3.08848
vt 0.3121514 0
vt 0.3121514 3.08848
vt 0 -0.3121514
vt 0.2412677 -0.3121514
vt -0.2412677 -0.3121514
vt 0.2899041 0
vt 0.2899041 4.277703
vt 0 4.277703
vt -0.2478108 0
vt -0.2478108 4.277703
vt -0.2899041 0
vt -0.2899041 4.277703
vt 0.2478108 0
vt 0.2478108 4.277703
vt -0.2899041 -0.2478108
vt 0 -0.2478108
vt 0.2899041 -0.2478108

vn 0 0 1
vn -1 0 0
vn 0 0 -1
vn 1 0 0
vn 0 1 0
vn 0 -1 0
vn -0.9994718 0 0.03249893
vn 0.9999976 0 0.002202968

usemtl Lit
f 3/3/1 4/4/1 2/2/1 1/1/1
f 4/6/2 6/4/2 5/2/2 2/5/2
f 6/4/3 8/8/3 7/7/3 5/2/3
f 8/4/4 3/10/4 1/9/4 7/2/4
f 8/7/5 6/2/5 4/12/5 3/11/5
f 1/13/6 2/12/6 5/2/6 7/1/6
f 11/15/1 12/16/1 10/14/1 9/2/1
f 12/18/2 14/15/2 13/2/2 10/17/2
f 14/20/3 16/15/3 15/2/3 13/19/3
f 16/15/4 11/22/4 9/21/4 15/2/4
f 16/2/5 14/19/5 12/24/5 11/23/5
f 9/23/6 10/25/6 13/14/6 15/2/6
f 19/27/1 20/28/1 18/2/1 17/26/1
f 20/28/7 22/30/7 21/29/7 18/2/7
f 22/33/3 24/34/3 23/32/3 21/31/3
f 24/37/8 19/38/8 17/36/8 23/35/8
f 24/40/5 22/41/5 20/2/5 19/39/5
f 17/26/6 18/2/6 21/43/6 23/42/6
f 27/45/1 28/46/1 26/44/1 25/2/1
f 28/45/2 30/48/2 29/47/2 26/2/2
f 30/50/3 32/45/3 31/2/3 29/49/3
f 32/52/4 27/45/4 25/2/4 31/51/4
f 32/53/5 30/54/5 28/49/5 27/2/5
f 25/2/6 26/44/6 29/55/6 31/53/6
f 35/57/1 36/58/1 34/2/1 33/56/1
f 36/58/2 38/60/2 37/59/2 34/2/2
f 38/58/3 40/62/3 39/61/3 37/2/3
f 40/64/4 35/58/4 33/2/4 39/63/4
f 40/65/5 38/66/5 36/2/5 35/61/5
f 33/56/6 34/2/6 37/66/6 39/67/6

