# ProBuilder 5.0.7
# https://unity3d.com/unity/features/worldbuilding/probuilder
# 21/6/2023 11:10:28 p. m.

mtllib ./MESH_Ladder_Col.mtl
o MESH_Ladder_Col

g Cube (1)
v 0.4653902 0 -1.008141
v 0.08530784 0 -1.008141
v 0.4653902 1.192093E-07 0.8327731
v 0.08530784 1.192093E-07 0.8327731
v -0.4199538 4.25 -0.6389056
v -0.4199538 4.25 0.4157997
v -0.2661656 4.25 -0.6389056
v -0.2661656 4.25 0.4157997

vt 0 -1.840914
vt -0.3800824 -1.840914
vt 0 7.719456E-15
vt -0.3800824 7.719456E-15
vt -1.840914 0.04487015
vt -1.471679 4.324799
vt -2.92605E-09 0.04487027
vt -0.4169734 4.324799
vt 0.885344 -1.471679
vt 0.7315558 -1.471679
vt 0.885344 -0.4169734
vt 0.7315558 -0.4169734
vt 1.471679 4.312502
vt 1.840914 0
vt 0.4169734 4.312502
vt -0.7315558 4.270406
vt -0.885344 4.270406
vt 0.7315558 4.106673
vt 0.885344 4.106673
vt 0 -0.1593364
vt 0.3800824 -0.1593364

vn 0 -1 6.475549E-08
vn -0.9930072 -0.1180537 7.644628E-09
vn 0 1 0
vn 0.9855068 0.169636 0
vn 0 0.09764257 0.9952216
vn 0 0.08655286 -0.9962472

usemtl Lit
f 3/3/1 4/4/1 2/2/1 1/1/1
f 4/7/2 6/8/2 5/6/2 2/5/2
f 6/11/3 8/12/3 7/10/3 5/9/3
f 8/15/4 3/3/4 1/14/4 7/13/4
f 8/16/5 6/17/5 4/4/5 3/3/5
f 1/20/6 2/21/6 5/19/6 7/18/6

