# ProBuilder 5.0.7
# https://unity3d.com/unity/features/worldbuilding/probuilder
# 20/06/2023 19:43:13

mtllib ./MESH_DesertHouseV1_Collider.mtl
o MESH_DesertHouseV1_Collider

g MESH_DesertHouseV1_Collider
v 2.25 0 3.232183
v -2.31999 0 3.232183
v 2.25 4.25 3.232183
v -2.31999 4.25 3.232183
v -2.31999 0 -0.75
v -2.31999 4.25 -0.75
v -2.31999 0 -3.120502
v 2.25 0 -3.120502
v -2.31999 4.25 -3.120502
v 2.25 4.25 -3.120502
v 2.25 0 -0.75
v 2.25 4.25 -0.75
v 1.970605 7.317658 2.988725
v -2.040596 7.317658 2.988725
v 1.970605 7.317658 -0.506542
v -2.040596 7.317658 -0.506542
v 1.990347 4.278629 -0.884685
v -2.060337 4.278629 -0.884685
v 1.990347 4.278629 -2.985817
v -2.060337 4.278629 -2.985817
v 2.25 7.87308 3.232183
v -2.31999 7.87308 3.232183
v 2.25 7.87308 -0.75
v -2.31999 7.87308 -0.75
v 1.970605 7.893439 2.988725
v -2.040596 7.893439 2.988725
v 1.970605 7.893439 -0.506542
v -2.040596 7.893439 -0.506542
v 2.25 4.988748 -0.75
v -2.31999 4.988748 -0.75
v 2.25 4.988748 -3.120502
v -2.31999 4.988748 -3.120502
v 1.990347 4.996253 -0.884685
v -2.060337 4.996253 -0.884685
v 1.990347 4.996253 -2.985817
v -2.060337 4.996253 -2.985817

vt 0 0
vt -4.56999 0
vt 0 4.25
vt -4.56999 4.25
vt -0.01781726 0
vt -4 0
vt -0.01781726 4.25
vt -4 4.25
vt 4.56999 0
vt 4.56999 4.25
vt 4 0
vt 0.01781726 0
vt 4 4.25
vt 0.01781726 4.25
vt 0.2793946 -0.2612753
vt 4.290596 -0.2612753
vt 0.2793946 -3.756542
vt 4.290596 -3.756542
vt 0 -4
vt -4.56999 -4
vt 0 -0.01781726
vt -4.56999 -0.01781726
vt -4.56999 -6.370502
vt 0 -6.370502
vt -6.370502 4.25
vt -6.370502 0
vt 6.370502 0
vt 6.370502 4.25
vt 0.2596533 -4.134685
vt 4.310337 -4.134685
vt 0.2596533 -6.235817
vt 4.310337 -6.235817
vt 0 7.87308
vt -4.56999 7.87308
vt 4 7.87308
vt 0.01781726 7.87308
vt -0.01781726 7.87308
vt -4 7.87308
vt 4.56999 7.87308
vt 0 -0.6738623
vt 4.56999 -0.6738623
vt 0.2793946 -0.9181702
vt 4.290596 -0.9181702
vt 0.5721949 -4
vt 0.5721949 -0.01781726
vt 0.8523304 -3.756542
vt 0.8523304 -0.2612753
vt 3.98571 -0.01781726
vt 3.98571 -4
vt 3.705575 -0.2612753
vt 3.705575 -3.756542
vt 4.56999 -3.329979
vt 0 -3.329979
vt 4.290596 -3.085671
vt 0.2793946 -3.085671
vt 0.2793946 7.893439
vt 4.290596 7.893439
vt 0.2793946 7.317658
vt 4.290596 7.317658
vt -3.756542 7.893439
vt -0.2612753 7.893439
vt -3.756542 7.317658
vt -0.2612753 7.317658
vt 0.2612753 7.893439
vt 3.756542 7.893439
vt 0.2612753 7.317658
vt 3.756542 7.317658
vt -4.290596 7.893439
vt -0.2793946 7.893439
vt -4.290596 7.317658
vt -0.2793946 7.317658
vt 0 4.988748
vt -4.56999 4.988748
vt 6.370502 4.988748
vt 4 4.988748
vt -4 4.988748
vt -6.370502 4.988748
vt 4.56999 4.988748
vt 0 -4.271341
vt 4.56999 -4.271341
vt 0.2596533 -4.406235
vt 4.310337 -4.406235
vt 0.1441239 -6.370502
vt 0.1441239 -4
vt 0.4038857 -6.235817
vt 0.4038857 -4.134685
vt 4.423959 -4
vt 4.423959 -6.370502
vt 4.164197 -4.134685
vt 4.164197 -6.235817
vt 4.56999 -6.083101
vt 0 -6.083101
vt 4.310337 -5.948207
vt 0.2596533 -5.948207
vt 0.2596533 4.996253
vt 4.310337 4.996253
vt 0.2596533 4.278629
vt 4.310337 4.278629
vt -6.235817 4.996253
vt -4.134685 4.996253
vt -6.235817 4.278629
vt -4.134685 4.278629
vt 4.134685 4.996253
vt 6.235817 4.996253
vt 4.134685 4.278629
vt 6.235817 4.278629
vt -4.310337 4.996253
vt -0.2596533 4.996253
vt -4.310337 4.278629
vt -0.2596533 4.278629

vn 0 0 1
vn -1 0 0
vn 0 0 -1
vn 1 0 0
vn 0 1 0
vn 0 -1 0
vn 0 0.9965216 0.0833355
vn 0.0726774 0.9973555 0
vn -0.0726774 0.9973555 0
vn 0 0.9965216 -0.0833355
vn 0 0.9984514 0.05563232
vn 0.02888979 0.9995826 0
vn -0.02888982 0.9995826 0
vn 0 0.9984514 -0.05563232

usemtl Lit
f 3/3/1 4/4/1 2/2/1 1/1/1
f 4/7/2 6/8/2 5/6/2 2/5/2
f 9/10/3 10/3/3 8/1/3 7/9/3
f 12/13/4 3/14/4 1/12/4 11/11/4
f 15/17/5 16/18/5 14/16/5 13/15/5
f 1/21/6 2/22/6 5/20/6 11/19/6
f 7/23/6 8/24/6 11/19/6 5/20/6
f 9/25/2 7/26/2 5/6/2 6/8/2
f 8/27/4 10/28/4 12/13/4 11/11/4
f 19/31/5 20/32/5 18/30/5 17/29/5
f 21/33/1 22/34/1 4/4/1 3/3/1
f 23/35/4 21/36/4 3/14/4 12/13/4
f 22/37/2 24/38/2 6/8/2 4/7/2
f 24/39/3 23/33/3 12/3/3 6/10/3
f 25/42/7 26/43/7 22/41/7 21/40/7
f 27/46/8 25/47/8 21/45/8 23/44/8
f 26/50/9 28/51/9 24/49/9 22/48/9
f 28/54/10 27/55/10 23/53/10 24/52/10
f 13/58/3 14/59/3 26/57/3 25/56/3
f 15/62/2 13/63/2 25/61/2 27/60/2
f 14/66/4 16/67/4 28/65/4 26/64/4
f 16/70/1 15/71/1 27/69/1 28/68/1
f 29/72/1 30/73/1 6/4/1 12/3/1
f 31/74/4 29/75/4 12/13/4 10/28/4
f 30/76/2 32/77/2 9/25/2 6/8/2
f 32/78/3 31/72/3 10/3/3 9/10/3
f 33/81/11 34/82/11 30/80/11 29/79/11
f 35/85/12 33/86/12 29/84/12 31/83/12
f 34/89/13 36/90/13 32/88/13 30/87/13
f 36/93/14 35/94/14 31/92/14 32/91/14
f 17/97/3 18/98/3 34/96/3 33/95/3
f 19/101/2 17/102/2 33/100/2 35/99/2
f 18/105/4 20/106/4 36/104/4 34/103/4
f 20/109/1 19/110/1 35/108/1 36/107/1

